<?xml version="1.0" encoding="utf-8"?>
<!DOCTYPE svg PUBLIC "-//W3C//DTD SVG 1.1//EN" "http://www.w3.org/Graphics/SVG/1.1/DTD/svg11.dtd">
<svg version="1.1" id="Ebene_1" xmlns="http://www.w3.org/2000/svg" xmlns:xlink="http://www.w3.org/1999/xlink" x="0px" y="0px"
	 width="169.625px" height="375.875px" viewBox="0 0 169.625 375.875" enable-background="new 0 0 169.625 375.875"
	 xml:space="preserve">
<g>
	<path fill="#FFFFFF" stroke="#DADADA" stroke-miterlimit="10" d="M27.491,328.959c0,0-11.022-36.14-13.012-46.497
		c-1.993-10.358-7.571-48.526-7.914-53.415c-0.034-5.451,1.688-12.141,2.418-15.433c0,0,1.414-7.813,0.9-16.134
		c-0.511-8.317-1.393-29.906-1.383-33.912c0.009-4.008-0.252-25.052-1.013-31.86c-0.76-6.811-3.546-30.385-4.115-34.076
		c-0.57-3.69-0.558-18.418-0.584-21.682c-0.024-3.264-0.26-14.886-0.138-18.472c0.121-3.587-0.397-12.461-0.478-16.699
		c-0.078-4.246,0.649-11.974,0.834-14.525c0.188-2.545,0.67-7.228,1.212-9.881c0.542-2.656,0.958-4.802,2.127-6.358
		c1.167-1.56,3.295-3.849,4.915-4.724c1.618-0.875,4.107-1.73,5.8-1.994c1.692-0.265,3.704-0.447,5.161-0.131
		c1.457,0.317,4.407,1.812,6.04,3.585c1.633,1.772,2.417,3.156,3.33,5.144c0.92,1.982,1.762,5.395,2.044,8.255
		c0.288,2.865,1.685,16.499,1.848,17.833c0.159,1.338,1.908,24.977,2.275,27.52c0.368,2.543,3.943,26.516,4.29,28.875
		c0.347,2.363,2.974,26.141,3.2,28.518c0.225,2.375,0.801,14.816,1.005,16.516c0.209,1.7,0.062,4.058,1.633,2.268
		c1.569-1.792,28.715-5.624,60.081,12.216c31.364,17.845,31.118,17.319,36.717,22.374c5.599,5.054,11.201,13.126,12.965,15.997
		c1.762,2.869,7.062,13.074,7.844,14.95c0.782,1.875,1.453,4.387,1.551,6.711c0.093,2.333-0.042,7.835,0.012,10.293
		c0.049,2.461-0.898,7.38-4.035,28.342c-3.136,20.962-2.866,16.554-3.136,20.962c-0.27,4.406-1.36,12.735-4.258,20.354
		c-2.901,7.624-4.066,18.086-6.184,23.023c-2.117,4.94-3.784,11.673-4.856,14.017c-1.04,3.831-1.31,7.313-3.654,13.671
		c-1.927,3.786-6.328,10.495-9.764,17.366c-4.973,5.111-76.696,19.646-87.863,7.366c-11.17-12.28-13.246-20.124-14.085-27.049
		C28.384,335.349,28.259,331.492,27.491,328.959z"/>
	<path fill="#EDEDED" stroke="#DADADA" stroke-miterlimit="10" d="M148.248,311.461c2.693-6.321,8.87-22.771,11.145-33.08
		c-1.556-14.432,2.972-39.129,5.14-49.479c0.086-7.312-20.303-30.294-22.223-31.491c-3.538-2.213-7.38-9.603-29.948-10.471
		c-15.256-0.592-42.986-11.239-55.145-5.85c-20.541,9.093-30.713,44.669-40.258,55.505c-7.598,11.479-4.512,16.176-5.266,30.515
		c4.153,22.285,3.134,22.081,11.81,35.464c1.799,4.09,4.623,8.645,6.708,14.546c3.117,5.688,2.406,8.338,3.271,12.273
		c1.483,2.161,1.605,6.072,4.255,11.291c4.909,14.079,1.837,14.775,9.982,25.864c8.125,11.08,51.876,2.77,70.577,0
		c18.701-2.771,21.162-34.117,21.162-34.117S145.557,317.784,148.248,311.461z"/>
	<path fill="#FFFFFF" stroke="#DADADA" stroke-miterlimit="10" d="M46.516,140.782c3.178,19.291,4.877,26.15,7.855,32.231"/>
</g>
</svg>
