<?xml version="1.0" encoding="utf-8"?>
<!-- Generator: Adobe Illustrator 16.0.0, SVG Export Plug-In . SVG Version: 6.00 Build 0)  -->
<!DOCTYPE svg PUBLIC "-//W3C//DTD SVG 1.1//EN" "http://www.w3.org/Graphics/SVG/1.1/DTD/svg11.dtd">
<svg version="1.1" id="Ebene_1" xmlns="http://www.w3.org/2000/svg" xmlns:xlink="http://www.w3.org/1999/xlink" x="0px" y="0px"
	 width="112.165px" height="112.166px" viewBox="43.786 28.369 112.165 112.166"
	 enable-background="new 43.786 28.369 112.165 112.166" xml:space="preserve">
<g id="fond">
</g>
<g id="compacte">
</g>
<g id="rectangle">
</g>
<g>
	<path d="M155.951,84.448c0,30.976-25.109,56.087-56.084,56.087c-30.973,0-56.081-25.111-56.081-56.087
		c0-30.971,25.107-56.079,56.081-56.079C130.842,28.369,155.951,53.477,155.951,84.448z"/>
	<path fill="#FFFFFF" d="M124.389,49.119c-5.697,0.195-10.67,3.34-14.373,7.68c-4.101,4.765-6.824,10.411-8.791,16.181
		c-3.515-2.883-6.224-6.611-11.864-8.233c-4.359-1.253-8.937-0.737-13.146,2.399c-1.991,1.488-3.366,3.737-4.02,5.858
		c-1.692,5.498,1.778,10.396,3.354,12.151l3.447,3.691c0.709,0.725,2.422,2.612,1.584,5.318c-0.899,2.947-4.451,4.85-8.092,3.73
		c-1.627-0.498-3.963-1.709-3.439-3.412c0.216-0.699,0.716-1.226,0.984-1.821c0.244-0.521,0.363-0.907,0.438-1.14
		c0.665-2.17-0.245-4.994-2.57-5.713c-2.171-0.666-4.392-0.139-5.252,2.654c-0.978,3.174,0.543,8.936,8.681,11.441
		c9.535,2.935,17.597-2.26,18.742-9.026c0.721-4.239-1.195-7.392-4.701-11.44l-2.858-3.164c-1.73-1.729-2.324-4.676-0.533-6.941
		c1.512-1.912,3.664-2.727,7.19-1.768c5.15,1.396,7.443,4.969,11.271,7.851c-1.578,5.187-2.613,10.392-3.547,15.06l-0.574,3.48
		c-2.736,14.352-4.826,22.234-10.256,26.76c-1.094,0.779-2.658,1.943-5.015,2.027c-1.237,0.037-1.637-0.814-1.653-1.186
		c-0.027-0.865,0.703-1.266,1.188-1.652c0.728-0.396,1.824-1.053,1.748-3.156c-0.078-2.484-2.137-4.639-5.11-4.541
		c-2.229,0.075-5.625,2.171-5.497,6.012c0.131,3.967,3.826,6.938,9.4,6.75c2.979-0.103,9.633-1.313,16.188-9.104
		c7.63-8.935,9.766-19.175,11.373-26.671l1.793-9.897c0.992,0.119,2.059,0.2,3.217,0.228c9.504,0.201,14.256-4.719,14.328-8.301
		c0.049-2.168-1.42-4.303-3.479-4.252c-1.471,0.041-3.318,1.022-3.762,3.057c-0.437,1.996,3.022,3.799,0.319,5.554
		c-1.92,1.242-5.36,2.116-10.209,1.407l0.881-4.872c1.8-9.238,4.019-20.6,12.437-20.878c0.615-0.029,2.856,0.026,2.91,1.512
		c0.014,0.493-0.107,0.623-0.688,1.757c-0.594,0.884-0.814,1.64-0.785,2.505c0.08,2.355,1.873,3.907,4.471,3.817
		c3.473-0.116,4.469-3.496,4.412-5.233C134.383,51.511,130.08,48.931,124.389,49.119z"/>
</g>
</svg>
