<?xml version="1.0" encoding="utf-8"?>
<!-- Generator: Adobe Illustrator 16.0.0, SVG Export Plug-In . SVG Version: 6.00 Build 0)  -->
<!DOCTYPE svg PUBLIC "-//W3C//DTD SVG 1.1//EN" "http://www.w3.org/Graphics/SVG/1.1/DTD/svg11.dtd">
<svg version="1.1" id="Ebene_1" xmlns="http://www.w3.org/2000/svg" xmlns:xlink="http://www.w3.org/1999/xlink" x="0px" y="0px"
	 width="304.25px" height="375.875px" viewBox="0 0 304.25 375.875" enable-background="new 0 0 304.25 375.875"
	 xml:space="preserve">
<g>
	<path fill="#FFFFFF" stroke="#DADADA" stroke-miterlimit="10" d="M125.951,206.322c0,0,2.361-43.712,2.514-85.175
		c0.097-28.817-1.769-56.546-2.514-67.741c-0.374-28.428-0.332-31.818,0-35.494c0.326-3.68,14.59-35.572,24.576,0
		c8.19,28.214,12.745,50.966,16.379,77.368c3.643,26.393,0.923,30.941,10.025,30.941c9.097,0,26.807,7.783,52.288,22.345
		c25.481,14.571,33.868,20.024,41.141,28.218c7.278,8.189,13.117,27.66,14.941,40.407c1.807,12.747,3.582,70.135,3.582,79.248
		c0,9.096-2.025,12.733,0.804,14.561c2.838,1.818,21.042,14.56,6.48,28.215c-14.563,13.65-29.141,26.399-50.069,29.131
		c-20.933,2.728-40.954,10.922-50.05,0c-9.112-10.924-9.112-13.651-23.677-25.488c-14.555-11.834-32.171-19.113-49.309-34.588
		c-17.134-15.476-24.417-23.669-42.621-38.227C62.235,255.474,52.15,250.101,44.86,244.64c-7.29-5.464-5.85-8.286-18.122-11.921
		c-10.921-2.729-31.86-8.195-22.751-15.471c9.101-7.283,21.719-10.671,24.813-11.837c8.342-0.809,14.682-1.591,33.435,4.554
		c16.389,11.831,27.31,18.203,37.324,18.203C109.566,228.168,129.589,225.436,125.951,206.322z"/>
	<path fill="#FFFFFF" stroke="#DADADA" stroke-miterlimit="10" d="M170.022,120.62c5.198,26.326,7.978,35.687,12.853,43.981"/>
	<path fill="#EDEDED" stroke="#DADADA" stroke-miterlimit="10" d="M289.688,310.999c-2.829-1.827-0.804-5.465-0.804-14.561
		c-0.028-80.46-9.556-104.877-10.792-105.929c-2.307-1.97-2.979-1.979-5.12-3.163c-3.963-2.177-8.357-5.894-33.522-7.988
		c-17.082,0.256-32.954,4.543-46.564,9.849c-22.989,8.963-49.527,40.405-60.208,51.081c-8.505,11.309-5.056,15.939-5.894,30.066
		c4.647,21.959,12.078,23.148,25.308,34.947c2.165,1.931,10.448,9.96,14.823,14.332c5.323,6.079-1.004,11.792,1.851,14.373
		c1.958,1.279,0.374,5.606,3.607,8.849c14.564,11.837,14.564,14.564,23.677,25.488c9.096,10.922,29.117,2.728,50.05,0
		c20.929-2.731,35.506-15.48,50.069-29.131C310.729,325.559,292.525,312.817,289.688,310.999z"/>
</g>
</svg>
